<svg version="1" xmlns="http://www.w3.org/2000/svg" width="704" height="704" viewBox="0 0 528.000000 528.000000"><path d="M173 109.1c-4 .8-7.3 2-13.9 5.2-1.4.7-5 3.5-8.1 6.4-12.7 11.7-17.4 29.5-12.3 46.3 1 3 1.7 5.8 1.8 6.2 0 .4-3.9 4.7-8.6 9.5-21.8 22.4-36.7 46.7-44.6 72.8-1.3 4.4-2.6 9.6-2.9 11.5-.3 1.9-.8 3.8-1 4.1-1.7 2.9-2.5 31.6-1.1 42.6 4.3 34.4 24.3 66.6 53.2 85.8 25.2 16.7 50.2 23.7 84.5 23.7 6.3 0 13.4-.3 15.8-.6 2.3-.3 6.1-.8 8.5-1.1 16.3-2.1 39.7-8.8 57.8-16.5l7.2-3 3.6 2.2c10.5 6.7 21.3 8.8 33.2 6.3 24.2-4.9 39.9-28.3 35.4-52.4-.6-3.3-.2-3.9 5.7-9.6 22.9-22.2 39.6-49.4 46.9-76.5 2.5-9.2 2.6-9.6 3.5-15.7.3-2.6.8-5.7 1-6.8.6-2.8.6-27.4 0-28.3-.2-.4-.7-3-1-5.7-1.7-12.5-7.6-29.4-14.9-42.1-16.2-28.5-44.5-49.7-79.2-59.4-14.9-4.2-28.2-5.7-47.3-5.5-9.7.2-18.8.5-20.2.8-1.4.3-5.9 1.1-10 1.7-9.9 1.6-9.3 1.5-18.5 3.9-10.1 2.6-25.6 7.6-28.6 9.2-1.9 1-2.5.9-3.8-.7-2.6-3.1-10.3-8.9-14.1-10.6-9.2-4.1-18.9-5.3-28-3.7zm147.9 22.4c9.2 1.3 26.9 6.5 35.2 10.3 31.9 14.7 52.1 40.1 59.5 74.7 1.3 6.2 1.3 33.4 0 39-7.2 30.7-18.8 51.9-41.3 75.3l-4.2 4.4-3.8-3.1c-9.4-7.4-21.7-11.3-33.5-10.3-17.7 1.3-35.2 16.8-39.4 34.9-1.4 6.2-1 17.6.9 23.1l1.4 4.1-9.1 3.6c-15.6 5.9-33.6 10.8-45.5 12.1-2.5.3-5.7.7-7.1 1-3.2.6-28.9.6-31.5.1-1.1-.3-4.2-.8-7-1.1-2.7-.4-7.7-1.4-11-2.2-42.7-10.7-71.5-40.4-80-82.4-1.4-7.1-1.4-29.4.1-37.5 3.3-17.9 11.1-37.1 21.4-53 6.7-10.3 11.5-16.1 21.3-26.1l7.9-8.1 5.7 2.8c17.2 8.9 36.9 6.2 51.3-7 9.6-8.8 14.1-19.4 14.2-33.6l.1-8 8.5-2.8c17.1-5.8 29.9-8.8 43.5-10.3 3.3-.3 6.2-.8 6.4-.9.5-.6 31.2.3 36 1z"/></svg>