<svg version="1" xmlns="http://www.w3.org/2000/svg" width="568" height="568" viewBox="0 0 426.000000 426.000000"><path d="M238.8 85.5c-.2.2-3.4.6-7.2 1-11.4 1-24.6 4.1-39.6 9.2l-8.6 2.9-2.9-2.8c-1.7-1.6-5.7-4.2-9-5.8-23.9-11.7-51.1 5.7-50.8 32.4 0 4 .7 8.7 1.6 10.7l1.5 3.7-5 4.8c-23.2 22.7-38.1 50.5-42.2 78.9-3.5 24.9 1.7 49.1 15.1 69.9 5.4 8.5 19.6 22.8 27.5 27.9 20.2 12.9 40.6 18.5 66.8 18.5 23.4-.1 46.8-5.2 67.7-14.8l4.3-2 6 3.2c10.6 5.5 25.3 4.9 34.5-1.6 12.2-8.5 17.6-19.1 16.8-33.1l-.3-6 7.1-7c7.5-7.4 16.4-18.5 21.7-27.2 4.9-8.1 12.2-24.7 13.7-31.3 3.5-15.1 3.9-18.4 3.8-32-.3-50.8-39.6-92-93.8-98.5-6-.8-28.2-1.5-28.7-1zm27.7 19.9c32.1 4.1 59.6 24.3 70.3 51.6 4.5 11.6 5.5 17.5 5.5 31.5-.1 24.7-11.2 49.8-31.5 71.4l-5.7 6-3-2.4c-5.1-4.3-10.8-6.4-21.5-7.9-1.1-.1-4.2.1-7 .6-14.4 2.7-25.9 14-28.6 28.1-1.1 5.9-1 8.6.6 17.3l.6 3.1-10.4 3.7c-11.8 4.2-23 7.1-30.7 8.1-3 .4-6.3.8-7.4 1.1-3.4.6-19.9.6-25.2 0-11.2-1.4-25.9-5.6-32.9-9.4-35.3-19-50.5-51.4-43.1-91.2 2.3-12.7 10.2-30.4 19.1-42.7 5.2-7.1 18.8-22.3 20-22.3.3 0 2.5.9 5 2 13.1 6 27.3 4.3 38.2-4.7 8.2-6.7 12.4-15.5 12.7-26.6.1-3.2.6-6.2 1.1-6.6 1-1 10.1-4.2 18.4-6.5 5.7-1.6 21.9-4.4 28-4.8 5.7-.5 22.1-.1 27.5.6z"/></svg>